<?xml version="1.0" encoding="UTF-8"?>
<svg width="20px" height="37px" viewBox="0 0 20 37" version="1.1" xmlns="http://www.w3.org/2000/svg" xmlns:xlink="http://www.w3.org/1999/xlink">
    <!-- Generator: Sketch 45.2 (43514) - http://www.bohemiancoding.com/sketch -->
    <title>Logo</title>
    <desc>Created with Sketch.</desc>
    <defs></defs>
    <g id="Page-1" stroke="none" stroke-width="1" fill="none" fill-rule="evenodd">
        <g id="d4d" transform="translate(-55.000000, -16.000000)" fill="#FFFFFF">
            <g id="header">
                <g id="Logo" transform="translate(55.000000, 16.000000)">
                    <polygon id="Rectangle-16" points="7.44186047 5.67751792 9.62032331 2.84217094e-14 9.1079244 4.26157925 10.7684734 4.02018068 11.0542648 7.76838032 8.74548132 7.76838032 9.32788899 5.43021469"></polygon>
                    <g id="Group-11" transform="translate(0.000000, 7.592706)">
                        <rect id="Rectangle-13" fill-opacity="0.6" x="6.65322581" y="11.4833432" width="6.65322581" height="4.04888967"></rect>
                        <g id="Group-9">
                            <path d="M2.49495968,6.85368777 C3.7496907,2.28456259 6.24465455,3.89879556e-16 9.97985123,0 C13.7150479,0 16.2100034,2.28456259 17.4647177,6.85368777 L17.4647177,8.54380588 L17.4647177,8.54380588 C17.4647177,10.8718628 15.5774547,12.7591258 13.2493979,12.7591258 L6.71027956,12.7591258 C4.38222268,12.7591258 2.49495968,10.8718628 2.49495968,8.54380588 L2.49495968,6.85368777 Z M9.94468545,10.0522886 C11.7625084,10.0522886 13.2361451,8.5574228 13.2361451,6.71341232 C13.2361451,4.86940185 11.7625084,3.374536 9.94468545,3.374536 C8.12686248,3.374536 6.65322581,4.86940185 6.65322581,6.71341232 C6.65322581,8.5574228 8.12686248,10.0522886 9.94468545,10.0522886 Z" id="Combined-Shape"></path>
                            <g id="Group-8" transform="translate(0.000000, 14.341778)">
                                <path d="M2.49495968,5.76707023 C2.49495968,5.8194263 2.49495968,0.0142264255 2.49495968,0 C1.1170315,0 0,1.29100265 0,2.88353512 C0,4.47606759 1.1170315,5.76707023 2.49495968,5.76707023 Z" id="Oval-4" fill-opacity="0.6"></path>
                                <path d="M11.3984823,16.6240806 C11.3984823,16.685348 11.3984823,9.89206843 11.3984823,9.87542058 C9.83149185,9.87542058 8.56119507,11.3861596 8.56119507,13.2497506 C8.56119507,15.1133416 9.83149185,16.6240806 11.3984823,16.6240806 Z" id="Oval-4" fill-opacity="0.6" transform="translate(9.979839, 13.249957) rotate(-90.000000) translate(-9.979839, -13.249957) "></path>
                                <path d="M19.9596774,5.76707023 C19.9596774,5.8194263 19.9596774,0.0142264255 19.9596774,0 C18.5817492,0 17.4647177,1.29100265 17.4647177,2.88353512 C17.4647177,4.47606759 18.5817492,5.76707023 19.9596774,5.76707023 Z" id="Oval-4" fill-opacity="0.6" transform="translate(18.712198, 2.883711) scale(-1, 1) translate(-18.712198, -2.883711) "></path>
                                <path d="M2.49495968,0 L17.4647177,0 L17.4647177,3.374536 L2.49495968,3.374536 L2.49495968,0 Z M4.15826613,3.374536 L15.8014113,3.374536 L15.8014113,9.28168407 C15.8014113,10.6785182 14.6690535,11.810876 13.2722194,11.810876 C12.174761,11.810876 11.0773027,11.810876 9.97984443,11.810876 C8.88238231,11.810876 7.78492019,11.810876 6.68745806,11.810876 C5.29062393,11.810876 4.15826613,10.6785182 4.15826613,9.28168407 L4.15826613,3.374536 Z" id="Combined-Shape"></path>
                            </g>
                        </g>
                    </g>
                    <ellipse id="Oval-6" cx="9.97983871" cy="14.341778" rx="1.66330645" ry="1.687268"></ellipse>
                </g>
            </g>
        </g>
    </g>
</svg>